Simulation
nRows=40
nColumns=15
endheader
time  TH_x TH_y TH_z SC_y  SC_z  SC_x  AC_y  AC_z  AC_x  GH_y  GH_z  GH_yy  EL_x  PS_y
0.0  0.000000  0.000000  0.000000  -40.97484877243665  6.293857566463187  5.290427962726946  44.266383197537785  7.1328692384513435  0.0038230683199005524  174.906697574138  6.7145766115409025  -149.69092169629164  22.661018954244966  120.000000
0.05745  0.000000  0.000000  0.000000  -38.923481068061385  5.779754307735722  3.1202636174293543  43.40480986659377  7.325000360239387  0.18655652792369065  169.81854191288016  3.497103023133569  -145.80601897668234  22.074673868542174  120.000000
0.1149  0.000000  0.000000  0.000000  -37.033721700543325  5.1159203433901155  0.9424411723951491  42.62911429564604  7.329073722056218  0.40821925408148074  117.4849861184938  0.7768709669983946  -94.6650478011341  21.669583045132136  120.000000
0.17235  0.000000  0.000000  0.000000  -35.412511563255585  4.362766352552762  -1.1463223333933488  41.980390190679564  7.202333146523317  0.6884482099738128  18.180290367852585  2.740391045979951  3.4440863681885427  21.52567862863754  120.000000
0.2298  0.000000  0.000000  0.000000  -34.10906951029167  3.597974606046692  -3.079335819119402  41.48322216094668  7.032926187029664  1.0448713075483995  11.227144402670241  5.611427439208376  9.187510636140214  21.65152543830722  120.000000
0.28725  0.000000  0.000000  0.000000  -33.13143869131184  2.902597836303045  -4.825079659821753  41.12801415073654  6.922656580991096  1.4959811506051324  9.003119524270689  8.516631748789615  10.164530892779583  21.98320256533862  120.000000
0.3447  0.000000  0.000000  0.000000  -32.47278475953423  2.353066207445062  -6.369623649305421  40.8834218797154  6.951525671872458  2.0475685084269517  7.5413379059814325  11.491583642138664  10.311448114648623  22.420595872724988  120.000000
0.40215  0.000000  0.000000  0.000000  -32.12981781434703  2.0048225014707173  -7.685075923765259  40.714822360237505  7.1471970995549965  2.673231624076525  6.216303227119607  14.59176280212292  10.224249472122564  22.853083119802708  120.000000
0.4596  0.000000  0.000000  0.000000  -32.09851597597802  1.8919003620717274  -8.730769511990612  40.595932073282924  7.4857054042674624  3.3269768836853824  4.943426425242827  17.861137829657103  9.972807710798058  23.187679914342116  120.000000
0.51705  0.000000  0.000000  0.000000  -32.37074631465288  2.029879770828409  -9.46207314764185  40.51328439119477  7.906328414444307  3.9630042370233762  3.75912732264558  21.31306894780351  9.528185549889354  23.363130086447697  120.000000
0.5745  0.000000  0.000000  0.000000  -32.92778625940084  2.422745105104456  -9.847924171819  40.46967481222065  8.33724151053033  4.555601284397007  2.726194078864183  24.91956592892671  8.858442252786535  23.357882821210712  120.000000
0.63195  0.000000  0.000000  0.000000  -33.74599905100032  3.055851415050483  -9.911660057208568  40.48230888027216  8.737745625225354  5.1303028503599295  1.9185349239758827  28.625270179599006  7.932585137877662  23.181795235325193  120.000000
0.6894  0.000000  0.000000  0.000000  -34.804735769198615  3.892835310873477  -9.71593684195465  40.5825117646318  9.094144557653188  5.742738651612892  1.4150769978447086  32.36952473562489  6.7122997957107176  22.864545925343453  120.000000
0.74685  0.000000  0.000000  0.000000  -36.0874971219828  4.8779944898638306  -9.315022847816211  40.80905213350552  9.399472700330389  6.432089946416236  1.2711181868603108  36.09704796169292  5.166424003644865  22.443542283842945  120.000000
0.8043  0.000000  0.000000  0.000000  -37.570986544739085  5.952448465904496  -8.745425226229493  41.193342797347285  9.656602938741043  7.2113686406807975  1.4986810746802413  39.755594371754526  3.2845341257563865  21.95717162312443  120.000000
0.86175  0.000000  0.000000  0.000000  -39.21760172207286  7.059494577023759  -8.026744047011176  41.74355030638677  9.886030420206536  8.067326701134693  2.05513735058679  43.294101114707935  1.091634722598508  21.440972876692673  120.000000
0.9192  0.000000  0.000000  0.000000  -40.97021741235106  8.148020206698641  -7.167636716267128  42.435203217619225  10.123590270840365  8.962115638887788  2.8494094827469665  46.65761935513519  -1.3456129930022693  20.92382458171941  120.000000
0.97665  0.000000  0.000000  0.000000  -42.751315582224265  9.175137192676456  -6.170629860486483  43.21200942810265  10.408743433484446  9.846746345278369  3.768338873497528  49.788652668295846  -3.925278667513462  20.425996566379442  120.000000
1.0341  0.000000  0.000000  0.000000  -44.467139580026284  10.118347969233822  -5.034426848849845  44.00121150028397  10.766706807571781  10.673677179941617  4.711625353434717  52.63454632974461  -6.524321154574876  19.95793884350667  120.000000
1.09155  0.000000  0.000000  0.000000  -46.03135085092747  10.97836727744665  -3.7577917314946734  44.727546351949464  11.198041385266407  11.403273667064223  5.605525522377805  55.160558263095126  -9.007448502710561  19.521152113996365  120.000000
1.149  0.000000  0.000000  0.000000  -47.3918929395616  11.763955025518303  -2.3467499451126557  45.32720717247818  11.679329210123571  12.008665551223844  6.402773385118182  57.351751618370216  -11.242658594570493  19.112439941674342  120.000000
1.20645  0.000000  0.000000  0.000000  -48.534771443119446  12.47789631596614  -0.8238058091810443  45.76890830301206  12.173025346401882  12.477347649594124  7.08194850173939  59.20784603734437  -13.128213614082032  18.727104871030075  120.000000
1.2639  0.000000  0.000000  0.000000  -49.475305560502086  13.110674403425808  0.7665386258978092  46.05724281669323  12.639324175566474  12.810410760335143  7.645109012796219  60.74009280137081  -14.616997180554598  18.364911783801993  120.000000
1.32135  0.000000  0.000000  0.000000  -50.23994083337231  13.643333566995192  2.3552124117582114  46.22313591930561  13.043471396164739  13.017548742911995  8.10856664438276  61.96884646929  -15.724685752950839  18.030688130365608  120.000000
1.3788  0.000000  0.000000  0.000000  -50.84728301940969  14.05535479730062  3.8500094156829405  46.30879120613831  13.36005938245749  13.11001763762028  8.4927101881635  62.918982161300946  -16.51780646159578  17.732588797446173  120.000000
1.43625  0.000000  0.000000  0.000000  -51.30007081825489  14.330398627923621  5.142736295404815  46.35516359361588  13.572272665390399  13.097949933587943  8.814257665486442  63.6173086875637  -17.08861144513319  17.47965265124757  120.000000
1.4937  0.000000  0.000000  0.000000  -51.58387974990429  14.458936557535123  6.11781188578367  46.39350418450707  13.66949930864667  12.989496221243657  9.08090996405503  64.09083255839731  -17.526704691574913  17.27964148355226  120.000000
1.55115  0.000000  0.000000  0.000000  -51.67527803176077  14.435989932129258  6.662314085445289  46.44372436067484  13.642907947365256  12.792987126242588  9.289453196119384  64.37076990134578  -17.89552042748237  17.138294005816647  120.000000
1.6086  0.000000  0.000000  0.000000  -51.547078665607614  14.253928996806339  6.675135105344684  46.515460490903436  13.483967085115438  12.519382082692061  9.423516535742536  64.4975298819505  -18.21778857442582  17.05866387264057  120.000000
1.66605  0.000000  0.000000  0.000000  -51.183527956324504  13.904603982619056  6.097795451462749  46.5985782085203  13.200803200436326  12.19566118639559  9.46990824003583  64.47157440056745  -18.492565169063464  17.04075432297192  120.000000
1.7235  0.000000  0.000000  0.000000  -50.590452940559096  13.387789415829669  4.942765079072841  46.65377603059374  12.840857003249448  11.872040597442782  9.435104267159502  64.20399061118877  -18.723166543337715  17.079691238623294  120.000000
1.78095  0.000000  0.000000  0.000000  -49.78217507790844  12.704391989201925  3.275430582170072  46.6308290551772  12.48242637013552  11.601036209589974  9.329034592019415  63.577837420631326  -18.911716279207816  17.160191890407088  120.000000
1.8384  0.000000  0.000000  0.000000  -48.771136316334534  11.85439055563823  1.1891410681502377  46.485456127924934  12.215958188703466  11.417042062143317  9.150644309015394  62.50856217279271  -19.054612396125307  17.257578129495403  120.000000
1.89585  0.000000  0.000000  0.000000  -47.57165886702114  10.846181830794608  -1.2032693138850616  46.18358644828718  12.130178734576543  11.331866096135766  8.894841315538615  60.942896334958675  -19.154453514024926  17.34293661880127  120.000000
1.9533  0.000000  0.000000  0.000000  -46.208822496260524  9.70034966473703  -3.782094393385902  45.70572446442998  12.293322072789907  11.338219074942593  8.562489756487427  58.86119966109709  -19.22631072134466  17.392616606409298  120.000000
2.01075  0.000000  0.000000  0.000000  -44.732028911106646  8.452755600646466  -6.433853609149167  45.05111786027298  12.737124328001425  11.417100402638242  8.167952539279327  56.27875699793429  -19.298135351613453  17.393158381488362  120.000000
2.0682  0.000000  0.000000  0.000000  -43.22084478840779  7.148304586316109  -9.0597227971412  44.23520533666639  13.449551128144162  11.550393564660112  7.74276160916276  53.24536867723093  -19.405561992441964  17.343363620510075  120.000000
2.1256500000000003  0.000000  0.000000  0.000000  -41.771429237690555  5.844712933486917  -11.580752017081986  43.295263333167  14.378657075262128  11.733528475526354  7.348619511610795  49.8427918168681  -19.590222897226408  17.24992816116954  120.000000
2.1831  0.000000  0.000000  0.000000  -40.465860628254674  4.609839072821271  -13.938729799138308  42.288417379742576  15.444825696256146  11.975497476376109  7.079578200207135  46.16893354494115  -19.891970207124462  17.117624250910513  120.000000
2.24055  0.000000  0.000000  0.000000  -39.35609900414221  3.502642805054478  -16.094506150630927  41.274103398234146  16.553563471574357  12.287272454143585  7.037584152831966  42.31378788374042  -20.324212749599912  16.942161608528185  120.000000
